# xmcd
#
# Track frame offsets:
#	150
#	17714
#	32021
#	47927
#	61460
#	83293
#	97102
#	112359
#	131766
#	147929
#	166034
#	179896
#	196850
#	213580
#	230748
#	246469
#	261622
#	278647
#	296195
#
# Disc length: 4183 seconds
#
# Revision: 1
# Processed by: cddbd v1.5.2PL0 Copyright (c) Steve Scherf et al.
# Submitted via: audiograbber 1.83.01
#
DISCID=31105513
DTITLE=Truck Stop - Das große Jubiläum - 05 - Unsere schönsten Balladen
DYEAR=2018
DGENRE=Country
TTITLE0=Träume von den Cowboys
TTITLE1=Highways
TTITLE2=Lisa
TTITLE3=Es ist kalt
TTITLE4=Fluss im Abendwnd
TTITLE5=Ein kaltes Bier, ein warmes Herz
TTITLE6=Lass mich los
TTITLE7=Frei sein
TTITLE8=Raus aus meinem Kopf
TTITLE9=Legenden
TTITLE10=Rocky Mountains
TTITLE11=Sonst glaub' ich's nicht
TTITLE12=Alabama Moon
TTITLE13=Heimat ist überall
TTITLE14=Das alte Eisen
TTITLE15=Ein Hund ohne richtigen Namen
TTITLE16=Der Kaffee muss schwarz sein
TTITLE17=Weil du es bist
TTITLE18=Ohne Frauen wie dich
EXTD=
EXTT0=
EXTT1=
EXTT2=
EXTT3=
EXTT4=
EXTT5=
EXTT6=
EXTT7=
EXTT8=
EXTT9=
EXTT10=
EXTT11=
EXTT12=
EXTT13=
EXTT14=
EXTT15=
EXTT16=
EXTT17=
EXTT18=
PLAYORDER=
